<mxfile host="Electron" modified="2023-04-07T02:47:04.312Z" agent="Mozilla/5.0 (Windows NT 10.0; Win64; x64) AppleWebKit/537.36 (KHTML, like Gecko) draw.io/21.1.2 Chrome/106.0.5249.199 Electron/21.4.3 Safari/537.36" etag="eW1yRwn0ygY1DMRfRd-M" version="21.1.2" type="device">
  <diagram name="Page-1" id="Xq9pOM4AL3ZSUUl4AXzp">
    <mxGraphModel dx="1954" dy="1626" grid="1" gridSize="10" guides="1" tooltips="1" connect="1" arrows="1" fold="1" page="1" pageScale="1" pageWidth="850" pageHeight="1100" math="0" shadow="0">
      <root>
        <mxCell id="0" />
        <mxCell id="1" parent="0" />
        <mxCell id="CUTSN-miUmByQ_pqvZb4-1" style="edgeStyle=orthogonalEdgeStyle;rounded=0;orthogonalLoop=1;jettySize=auto;html=1;entryX=0.5;entryY=0;entryDx=0;entryDy=0;" parent="1" source="CUTSN-miUmByQ_pqvZb4-2" target="CUTSN-miUmByQ_pqvZb4-34" edge="1">
          <mxGeometry relative="1" as="geometry">
            <mxPoint x="425.5" y="140" as="targetPoint" />
          </mxGeometry>
        </mxCell>
        <mxCell id="CUTSN-miUmByQ_pqvZb4-2" value="begin" style="ellipse;whiteSpace=wrap;html=1;aspect=fixed;" parent="1" vertex="1">
          <mxGeometry x="385" y="-40" width="80" height="80" as="geometry" />
        </mxCell>
        <mxCell id="CUTSN-miUmByQ_pqvZb4-3" value="end" style="ellipse;whiteSpace=wrap;html=1;aspect=fixed;" parent="1" vertex="1">
          <mxGeometry x="385.5" y="990" width="80" height="80" as="geometry" />
        </mxCell>
        <mxCell id="CUTSN-miUmByQ_pqvZb4-8" value="" style="whiteSpace=wrap;html=1;aspect=fixed;fillColor=#FFFF00;" parent="1" vertex="1">
          <mxGeometry x="630" y="30" width="260" height="260" as="geometry" />
        </mxCell>
        <mxCell id="CUTSN-miUmByQ_pqvZb4-9" style="edgeStyle=orthogonalEdgeStyle;rounded=0;orthogonalLoop=1;jettySize=auto;html=1;entryX=0.5;entryY=0;entryDx=0;entryDy=0;" parent="1" source="CUTSN-miUmByQ_pqvZb4-10" target="CUTSN-miUmByQ_pqvZb4-14" edge="1">
          <mxGeometry relative="1" as="geometry" />
        </mxCell>
        <mxCell id="CUTSN-miUmByQ_pqvZb4-10" value="print(sodu,name)" style="ellipse;whiteSpace=wrap;html=1;" parent="1" vertex="1">
          <mxGeometry x="655" y="40" width="210" height="60" as="geometry" />
        </mxCell>
        <mxCell id="CUTSN-miUmByQ_pqvZb4-11" style="edgeStyle=orthogonalEdgeStyle;rounded=0;orthogonalLoop=1;jettySize=auto;html=1;exitX=0.5;exitY=1;exitDx=0;exitDy=0;" parent="1" source="CUTSN-miUmByQ_pqvZb4-10" target="CUTSN-miUmByQ_pqvZb4-10" edge="1">
          <mxGeometry relative="1" as="geometry" />
        </mxCell>
        <mxCell id="CUTSN-miUmByQ_pqvZb4-12" value="return" style="ellipse;whiteSpace=wrap;html=1;" parent="1" vertex="1">
          <mxGeometry x="665" y="230" width="190" height="50" as="geometry" />
        </mxCell>
        <mxCell id="CUTSN-miUmByQ_pqvZb4-13" style="edgeStyle=orthogonalEdgeStyle;rounded=0;orthogonalLoop=1;jettySize=auto;html=1;entryX=0.5;entryY=0;entryDx=0;entryDy=0;" parent="1" source="CUTSN-miUmByQ_pqvZb4-14" target="CUTSN-miUmByQ_pqvZb4-12" edge="1">
          <mxGeometry relative="1" as="geometry" />
        </mxCell>
        <mxCell id="CUTSN-miUmByQ_pqvZb4-14" value="print name, sodu" style="rounded=0;whiteSpace=wrap;html=1;" parent="1" vertex="1">
          <mxGeometry x="662.5" y="130" width="195" height="70" as="geometry" />
        </mxCell>
        <mxCell id="CUTSN-miUmByQ_pqvZb4-17" style="edgeStyle=orthogonalEdgeStyle;rounded=0;orthogonalLoop=1;jettySize=auto;html=1;exitX=1;exitY=0.5;exitDx=0;exitDy=0;" parent="1" source="CUTSN-miUmByQ_pqvZb4-18" target="CUTSN-miUmByQ_pqvZb4-21" edge="1">
          <mxGeometry relative="1" as="geometry">
            <mxPoint x="670" y="415.3529411764707" as="targetPoint" />
          </mxGeometry>
        </mxCell>
        <mxCell id="lzqcApx3vuAQtGLoI8DU-2" style="edgeStyle=orthogonalEdgeStyle;rounded=0;orthogonalLoop=1;jettySize=auto;html=1;entryX=0.5;entryY=0;entryDx=0;entryDy=0;" edge="1" parent="1" source="CUTSN-miUmByQ_pqvZb4-18" target="CUTSN-miUmByQ_pqvZb4-68">
          <mxGeometry relative="1" as="geometry" />
        </mxCell>
        <mxCell id="CUTSN-miUmByQ_pqvZb4-18" value="gui(&amp;amp;sodu)" style="shape=process;whiteSpace=wrap;html=1;backgroundOutline=1;fillColor=#FFFF66;" parent="1" vertex="1">
          <mxGeometry x="310.5" y="305" width="230" height="60" as="geometry" />
        </mxCell>
        <mxCell id="CUTSN-miUmByQ_pqvZb4-19" style="edgeStyle=orthogonalEdgeStyle;rounded=0;orthogonalLoop=1;jettySize=auto;html=1;entryX=0.5;entryY=0;entryDx=0;entryDy=0;" parent="1" source="CUTSN-miUmByQ_pqvZb4-20" target="CUTSN-miUmByQ_pqvZb4-3" edge="1">
          <mxGeometry relative="1" as="geometry" />
        </mxCell>
        <mxCell id="CUTSN-miUmByQ_pqvZb4-20" value="print a" style="shape=parallelogram;perimeter=parallelogramPerimeter;whiteSpace=wrap;html=1;fixedSize=1;" parent="1" vertex="1">
          <mxGeometry x="334.5" y="880" width="185" height="60" as="geometry" />
        </mxCell>
        <mxCell id="CUTSN-miUmByQ_pqvZb4-21" value="" style="whiteSpace=wrap;html=1;aspect=fixed;fillColor=#FFFF33;" parent="1" vertex="1">
          <mxGeometry x="630" y="305" width="305" height="305" as="geometry" />
        </mxCell>
        <mxCell id="CUTSN-miUmByQ_pqvZb4-50" style="edgeStyle=orthogonalEdgeStyle;rounded=0;orthogonalLoop=1;jettySize=auto;html=1;entryX=0.5;entryY=0;entryDx=0;entryDy=0;" parent="1" source="CUTSN-miUmByQ_pqvZb4-23" target="CUTSN-miUmByQ_pqvZb4-49" edge="1">
          <mxGeometry relative="1" as="geometry" />
        </mxCell>
        <mxCell id="CUTSN-miUmByQ_pqvZb4-23" value="gui(&amp;amp;sodu)" style="ellipse;whiteSpace=wrap;html=1;" parent="1" vertex="1">
          <mxGeometry x="670" y="310" width="230" height="60" as="geometry" />
        </mxCell>
        <mxCell id="CUTSN-miUmByQ_pqvZb4-24" value="return" style="ellipse;whiteSpace=wrap;html=1;" parent="1" vertex="1">
          <mxGeometry x="692.5" y="550" width="185" height="60" as="geometry" />
        </mxCell>
        <mxCell id="CUTSN-miUmByQ_pqvZb4-25" style="edgeStyle=orthogonalEdgeStyle;rounded=0;orthogonalLoop=1;jettySize=auto;html=1;" parent="1" source="CUTSN-miUmByQ_pqvZb4-26" target="CUTSN-miUmByQ_pqvZb4-24" edge="1">
          <mxGeometry relative="1" as="geometry" />
        </mxCell>
        <mxCell id="CUTSN-miUmByQ_pqvZb4-26" value="*sodu=*sodu+sotien" style="rounded=0;whiteSpace=wrap;html=1;" parent="1" vertex="1">
          <mxGeometry x="680" y="470" width="210" height="50" as="geometry" />
        </mxCell>
        <mxCell id="CUTSN-miUmByQ_pqvZb4-27" style="edgeStyle=orthogonalEdgeStyle;rounded=0;orthogonalLoop=1;jettySize=auto;html=1;exitX=1;exitY=0;exitDx=0;exitDy=0;" parent="1" source="CUTSN-miUmByQ_pqvZb4-30" target="CUTSN-miUmByQ_pqvZb4-31" edge="1">
          <mxGeometry relative="1" as="geometry">
            <mxPoint x="-10" y="80" as="targetPoint" />
          </mxGeometry>
        </mxCell>
        <mxCell id="CUTSN-miUmByQ_pqvZb4-28" style="edgeStyle=orthogonalEdgeStyle;rounded=0;orthogonalLoop=1;jettySize=auto;html=1;" parent="1" source="CUTSN-miUmByQ_pqvZb4-30" target="CUTSN-miUmByQ_pqvZb4-32" edge="1">
          <mxGeometry relative="1" as="geometry">
            <mxPoint x="30" y="210" as="targetPoint" />
          </mxGeometry>
        </mxCell>
        <mxCell id="CUTSN-miUmByQ_pqvZb4-29" style="edgeStyle=orthogonalEdgeStyle;rounded=0;orthogonalLoop=1;jettySize=auto;html=1;exitX=1;exitY=1;exitDx=0;exitDy=0;" parent="1" source="CUTSN-miUmByQ_pqvZb4-30" target="CUTSN-miUmByQ_pqvZb4-33" edge="1">
          <mxGeometry relative="1" as="geometry">
            <mxPoint x="40" y="380" as="targetPoint" />
          </mxGeometry>
        </mxCell>
        <mxCell id="CUTSN-miUmByQ_pqvZb4-30" value="&lt;div&gt;Viet chuong trinh ngan hang voi cac chuc nang:&lt;/div&gt;&lt;div&gt;deposit - gui tien&lt;/div&gt;&lt;div&gt;withdraw - rut tien&lt;/div&gt;&lt;div&gt;show balance - in so du hien tai&lt;/div&gt;" style="whiteSpace=wrap;html=1;aspect=fixed;" parent="1" vertex="1">
          <mxGeometry x="-260" y="120" width="180" height="180" as="geometry" />
        </mxCell>
        <mxCell id="CUTSN-miUmByQ_pqvZb4-31" value="input: name, sotien" style="rounded=0;whiteSpace=wrap;html=1;" parent="1" vertex="1">
          <mxGeometry x="-20" y="20" width="120" height="60" as="geometry" />
        </mxCell>
        <mxCell id="CUTSN-miUmByQ_pqvZb4-32" value="process:&lt;br&gt;sodu=sodu+sotien (guitien)&lt;br&gt;sodu=sodu-sotien (ruttien)" style="rounded=0;whiteSpace=wrap;html=1;" parent="1" vertex="1">
          <mxGeometry x="-40" y="130" width="220" height="160" as="geometry" />
        </mxCell>
        <mxCell id="CUTSN-miUmByQ_pqvZb4-33" value="output: sodu" style="rounded=0;whiteSpace=wrap;html=1;" parent="1" vertex="1">
          <mxGeometry x="-20" y="340" width="120" height="60" as="geometry" />
        </mxCell>
        <mxCell id="CUTSN-miUmByQ_pqvZb4-38" style="edgeStyle=orthogonalEdgeStyle;rounded=0;orthogonalLoop=1;jettySize=auto;html=1;entryX=0.5;entryY=0;entryDx=0;entryDy=0;" parent="1" source="CUTSN-miUmByQ_pqvZb4-34" target="CUTSN-miUmByQ_pqvZb4-37" edge="1">
          <mxGeometry relative="1" as="geometry">
            <mxPoint x="424.5" y="150" as="targetPoint" />
          </mxGeometry>
        </mxCell>
        <mxCell id="CUTSN-miUmByQ_pqvZb4-34" value="read name" style="shape=parallelogram;perimeter=parallelogramPerimeter;whiteSpace=wrap;html=1;fixedSize=1;" parent="1" vertex="1">
          <mxGeometry x="329.5" y="60" width="190" height="60" as="geometry" />
        </mxCell>
        <mxCell id="CUTSN-miUmByQ_pqvZb4-35" style="edgeStyle=orthogonalEdgeStyle;rounded=0;orthogonalLoop=1;jettySize=auto;html=1;exitX=1;exitY=0.5;exitDx=0;exitDy=0;entryX=1;entryY=0.75;entryDx=0;entryDy=0;" parent="1" source="CUTSN-miUmByQ_pqvZb4-34" target="CUTSN-miUmByQ_pqvZb4-34" edge="1">
          <mxGeometry relative="1" as="geometry" />
        </mxCell>
        <mxCell id="CUTSN-miUmByQ_pqvZb4-57" style="edgeStyle=orthogonalEdgeStyle;rounded=0;orthogonalLoop=1;jettySize=auto;html=1;exitX=1;exitY=0.5;exitDx=0;exitDy=0;entryX=0;entryY=0.5;entryDx=0;entryDy=0;" parent="1" source="CUTSN-miUmByQ_pqvZb4-37" target="CUTSN-miUmByQ_pqvZb4-8" edge="1">
          <mxGeometry relative="1" as="geometry" />
        </mxCell>
        <mxCell id="lzqcApx3vuAQtGLoI8DU-1" style="edgeStyle=orthogonalEdgeStyle;rounded=0;orthogonalLoop=1;jettySize=auto;html=1;entryX=0.5;entryY=0;entryDx=0;entryDy=0;" edge="1" parent="1" source="CUTSN-miUmByQ_pqvZb4-37" target="CUTSN-miUmByQ_pqvZb4-18">
          <mxGeometry relative="1" as="geometry" />
        </mxCell>
        <mxCell id="CUTSN-miUmByQ_pqvZb4-37" value="print(sodu,name)" style="shape=process;whiteSpace=wrap;html=1;backgroundOutline=1;fillColor=#FFFF66;" parent="1" vertex="1">
          <mxGeometry x="309.5" y="165" width="230" height="60" as="geometry" />
        </mxCell>
        <mxCell id="CUTSN-miUmByQ_pqvZb4-56" style="edgeStyle=orthogonalEdgeStyle;rounded=0;orthogonalLoop=1;jettySize=auto;html=1;exitX=0;exitY=0.5;exitDx=0;exitDy=0;entryX=1;entryY=0.5;entryDx=0;entryDy=0;" parent="1" source="CUTSN-miUmByQ_pqvZb4-40" target="CUTSN-miUmByQ_pqvZb4-43" edge="1">
          <mxGeometry relative="1" as="geometry" />
        </mxCell>
        <mxCell id="lzqcApx3vuAQtGLoI8DU-4" style="edgeStyle=orthogonalEdgeStyle;rounded=0;orthogonalLoop=1;jettySize=auto;html=1;entryX=0.5;entryY=0;entryDx=0;entryDy=0;" edge="1" parent="1" source="CUTSN-miUmByQ_pqvZb4-40" target="CUTSN-miUmByQ_pqvZb4-73">
          <mxGeometry relative="1" as="geometry">
            <mxPoint x="424.5" y="720" as="targetPoint" />
          </mxGeometry>
        </mxCell>
        <mxCell id="CUTSN-miUmByQ_pqvZb4-40" value="rut(&amp;amp;sodu)" style="shape=process;whiteSpace=wrap;html=1;backgroundOutline=1;fillColor=#FFFF66;" parent="1" vertex="1">
          <mxGeometry x="309.5" y="590" width="230" height="60" as="geometry" />
        </mxCell>
        <mxCell id="CUTSN-miUmByQ_pqvZb4-43" value="" style="whiteSpace=wrap;html=1;aspect=fixed;fillColor=#FFFF33;" parent="1" vertex="1">
          <mxGeometry x="-110" y="452.5" width="335" height="335" as="geometry" />
        </mxCell>
        <mxCell id="CUTSN-miUmByQ_pqvZb4-54" style="edgeStyle=orthogonalEdgeStyle;rounded=0;orthogonalLoop=1;jettySize=auto;html=1;" parent="1" source="CUTSN-miUmByQ_pqvZb4-44" target="CUTSN-miUmByQ_pqvZb4-53" edge="1">
          <mxGeometry relative="1" as="geometry" />
        </mxCell>
        <mxCell id="CUTSN-miUmByQ_pqvZb4-44" value="rut(&amp;amp;sodu)" style="ellipse;whiteSpace=wrap;html=1;" parent="1" vertex="1">
          <mxGeometry x="-57.5" y="467.5" width="230" height="60" as="geometry" />
        </mxCell>
        <mxCell id="CUTSN-miUmByQ_pqvZb4-45" value="return" style="ellipse;whiteSpace=wrap;html=1;" parent="1" vertex="1">
          <mxGeometry x="-35" y="720" width="185" height="60" as="geometry" />
        </mxCell>
        <mxCell id="CUTSN-miUmByQ_pqvZb4-48" style="edgeStyle=orthogonalEdgeStyle;rounded=0;orthogonalLoop=1;jettySize=auto;html=1;entryX=0.5;entryY=0;entryDx=0;entryDy=0;" parent="1" source="CUTSN-miUmByQ_pqvZb4-46" target="CUTSN-miUmByQ_pqvZb4-45" edge="1">
          <mxGeometry relative="1" as="geometry" />
        </mxCell>
        <mxCell id="CUTSN-miUmByQ_pqvZb4-46" value="*sodu=*sodu-sotien" style="rounded=0;whiteSpace=wrap;html=1;" parent="1" vertex="1">
          <mxGeometry x="-47.5" y="630" width="210" height="60" as="geometry" />
        </mxCell>
        <mxCell id="CUTSN-miUmByQ_pqvZb4-52" style="edgeStyle=orthogonalEdgeStyle;rounded=0;orthogonalLoop=1;jettySize=auto;html=1;entryX=0.5;entryY=0;entryDx=0;entryDy=0;" parent="1" source="CUTSN-miUmByQ_pqvZb4-49" target="CUTSN-miUmByQ_pqvZb4-26" edge="1">
          <mxGeometry relative="1" as="geometry" />
        </mxCell>
        <mxCell id="CUTSN-miUmByQ_pqvZb4-49" value="read sotien" style="shape=parallelogram;perimeter=parallelogramPerimeter;whiteSpace=wrap;html=1;fixedSize=1;" parent="1" vertex="1">
          <mxGeometry x="690" y="390" width="190" height="50" as="geometry" />
        </mxCell>
        <mxCell id="CUTSN-miUmByQ_pqvZb4-55" style="edgeStyle=orthogonalEdgeStyle;rounded=0;orthogonalLoop=1;jettySize=auto;html=1;entryX=0.5;entryY=0;entryDx=0;entryDy=0;" parent="1" source="CUTSN-miUmByQ_pqvZb4-53" target="CUTSN-miUmByQ_pqvZb4-46" edge="1">
          <mxGeometry relative="1" as="geometry" />
        </mxCell>
        <mxCell id="CUTSN-miUmByQ_pqvZb4-53" value="read sotien" style="shape=parallelogram;perimeter=parallelogramPerimeter;whiteSpace=wrap;html=1;fixedSize=1;" parent="1" vertex="1">
          <mxGeometry x="-37.5" y="560" width="190" height="40" as="geometry" />
        </mxCell>
        <mxCell id="CUTSN-miUmByQ_pqvZb4-70" style="edgeStyle=orthogonalEdgeStyle;rounded=0;orthogonalLoop=1;jettySize=auto;html=1;exitX=1;exitY=0.5;exitDx=0;exitDy=0;entryX=0;entryY=0.75;entryDx=0;entryDy=0;" parent="1" source="CUTSN-miUmByQ_pqvZb4-68" target="CUTSN-miUmByQ_pqvZb4-8" edge="1">
          <mxGeometry relative="1" as="geometry">
            <mxPoint x="600" y="251" as="targetPoint" />
            <Array as="points">
              <mxPoint x="600" y="473" />
              <mxPoint x="600" y="225" />
            </Array>
          </mxGeometry>
        </mxCell>
        <mxCell id="lzqcApx3vuAQtGLoI8DU-3" style="edgeStyle=orthogonalEdgeStyle;rounded=0;orthogonalLoop=1;jettySize=auto;html=1;entryX=0.5;entryY=0;entryDx=0;entryDy=0;" edge="1" parent="1" source="CUTSN-miUmByQ_pqvZb4-68" target="CUTSN-miUmByQ_pqvZb4-40">
          <mxGeometry relative="1" as="geometry" />
        </mxCell>
        <mxCell id="CUTSN-miUmByQ_pqvZb4-68" value="print(sodu,name)" style="shape=process;whiteSpace=wrap;html=1;backgroundOutline=1;fillColor=#FFFF66;" parent="1" vertex="1">
          <mxGeometry x="309.5" y="442.5" width="230" height="60" as="geometry" />
        </mxCell>
        <mxCell id="CUTSN-miUmByQ_pqvZb4-76" style="edgeStyle=orthogonalEdgeStyle;rounded=0;orthogonalLoop=1;jettySize=auto;html=1;entryX=0.5;entryY=0;entryDx=0;entryDy=0;exitX=0.5;exitY=1;exitDx=0;exitDy=0;" parent="1" source="CUTSN-miUmByQ_pqvZb4-73" target="CUTSN-miUmByQ_pqvZb4-20" edge="1">
          <mxGeometry relative="1" as="geometry">
            <mxPoint x="424.5" y="810" as="sourcePoint" />
          </mxGeometry>
        </mxCell>
        <mxCell id="CUTSN-miUmByQ_pqvZb4-77" style="edgeStyle=orthogonalEdgeStyle;rounded=0;orthogonalLoop=1;jettySize=auto;html=1;exitX=1;exitY=0.5;exitDx=0;exitDy=0;entryX=0;entryY=0.25;entryDx=0;entryDy=0;" parent="1" source="CUTSN-miUmByQ_pqvZb4-73" target="CUTSN-miUmByQ_pqvZb4-8" edge="1">
          <mxGeometry relative="1" as="geometry">
            <mxPoint x="610" y="80" as="targetPoint" />
            <Array as="points">
              <mxPoint x="610" y="765" />
              <mxPoint x="610" y="95" />
            </Array>
          </mxGeometry>
        </mxCell>
        <mxCell id="CUTSN-miUmByQ_pqvZb4-73" value="print(sodu,name)" style="shape=process;whiteSpace=wrap;html=1;backgroundOutline=1;fillColor=#FFFF66;" parent="1" vertex="1">
          <mxGeometry x="309.5" y="735" width="230" height="60" as="geometry" />
        </mxCell>
      </root>
    </mxGraphModel>
  </diagram>
</mxfile>
